<mxfile host="app.diagrams.net" modified="2021-08-01T15:03:34.349Z" agent="5.0 (Windows NT 10.0; Win64; x64) AppleWebKit/537.36 (KHTML, like Gecko) Chrome/92.0.4515.107 Safari/537.36" etag="kPXpsD5eHlFdmqpQrDga" version="14.9.2" type="github">
  <diagram id="QCEERc0eEgBohQKH5NO_" name="Page-1">
    <mxGraphModel dx="1422" dy="794" grid="1" gridSize="10" guides="1" tooltips="1" connect="1" arrows="1" fold="1" page="1" pageScale="1" pageWidth="827" pageHeight="1169" math="0" shadow="0">
      <root>
        <mxCell id="0" />
        <mxCell id="1" parent="0" />
        <mxCell id="QAEoep2KOEI7FuyO-UFe-6" value="" style="edgeStyle=orthogonalEdgeStyle;rounded=0;orthogonalLoop=1;jettySize=auto;html=1;" parent="1" source="QAEoep2KOEI7FuyO-UFe-2" target="QAEoep2KOEI7FuyO-UFe-5" edge="1">
          <mxGeometry relative="1" as="geometry" />
        </mxCell>
        <mxCell id="QAEoep2KOEI7FuyO-UFe-2" value="隨機初始解&lt;br&gt;將初始解設為歷史最佳解&lt;br&gt;清空禁忌表" style="rounded=0;whiteSpace=wrap;html=1;" parent="1" vertex="1">
          <mxGeometry x="341" y="50" width="200" height="60" as="geometry" />
        </mxCell>
        <mxCell id="QAEoep2KOEI7FuyO-UFe-8" value="" style="edgeStyle=orthogonalEdgeStyle;rounded=0;orthogonalLoop=1;jettySize=auto;html=1;" parent="1" source="QAEoep2KOEI7FuyO-UFe-5" target="QAEoep2KOEI7FuyO-UFe-7" edge="1">
          <mxGeometry relative="1" as="geometry" />
        </mxCell>
        <mxCell id="QAEoep2KOEI7FuyO-UFe-5" value="決定鄰近解" style="whiteSpace=wrap;html=1;rounded=0;" parent="1" vertex="1">
          <mxGeometry x="381" y="190" width="120" height="60" as="geometry" />
        </mxCell>
        <mxCell id="QAEoep2KOEI7FuyO-UFe-12" value="" style="edgeStyle=orthogonalEdgeStyle;rounded=0;orthogonalLoop=1;jettySize=auto;html=1;" parent="1" source="QAEoep2KOEI7FuyO-UFe-7" target="QAEoep2KOEI7FuyO-UFe-11" edge="1">
          <mxGeometry relative="1" as="geometry" />
        </mxCell>
        <mxCell id="QAEoep2KOEI7FuyO-UFe-7" value="計算鄰近最佳解 &amp;amp;&lt;br&gt;非禁忌的鄰近最佳解" style="whiteSpace=wrap;html=1;rounded=0;" parent="1" vertex="1">
          <mxGeometry x="381" y="330" width="120" height="60" as="geometry" />
        </mxCell>
        <mxCell id="QAEoep2KOEI7FuyO-UFe-14" value="" style="edgeStyle=orthogonalEdgeStyle;rounded=0;orthogonalLoop=1;jettySize=auto;html=1;" parent="1" source="QAEoep2KOEI7FuyO-UFe-11" target="QAEoep2KOEI7FuyO-UFe-13" edge="1">
          <mxGeometry relative="1" as="geometry" />
        </mxCell>
        <mxCell id="QAEoep2KOEI7FuyO-UFe-11" value="鄰近最佳解是否優於歷史最佳解" style="rhombus;whiteSpace=wrap;html=1;rounded=0;" parent="1" vertex="1">
          <mxGeometry x="401" y="460" width="80" height="80" as="geometry" />
        </mxCell>
        <mxCell id="QAEoep2KOEI7FuyO-UFe-13" value="將禁忌表的最早元素替換成該鄰近最佳解&lt;br&gt;更新歷史最佳解" style="whiteSpace=wrap;html=1;rounded=0;" parent="1" vertex="1">
          <mxGeometry x="381" y="630" width="120" height="60" as="geometry" />
        </mxCell>
        <mxCell id="QAEoep2KOEI7FuyO-UFe-15" value="Yes" style="text;html=1;strokeColor=none;fillColor=none;align=center;verticalAlign=middle;whiteSpace=wrap;rounded=0;" parent="1" vertex="1">
          <mxGeometry x="470" y="565" width="40" height="20" as="geometry" />
        </mxCell>
      </root>
    </mxGraphModel>
  </diagram>
</mxfile>
